<svg width="20" height="20" viewBox="0 0 20 20" fill="none" xmlns="http://www.w3.org/2000/svg">
<path d="M13.3333 18.9583H6.66667C3.625 18.9583 1.875 17.2083 1.875 14.1667V5.83334C1.875 2.79167 3.625 1.04167 6.66667 1.04167H13.3333C16.375 1.04167 18.125 2.79167 18.125 5.83334V14.1667C18.125 17.2083 16.375 18.9583 13.3333 18.9583ZM6.66667 2.29167C4.28333 2.29167 3.125 3.45001 3.125 5.83334V14.1667C3.125 16.55 4.28333 17.7083 6.66667 17.7083H13.3333C15.7167 17.7083 16.875 16.55 16.875 14.1667V5.83334C16.875 3.45001 15.7167 2.29167 13.3333 2.29167H6.66667Z" fill="#93959E"/>
<path d="M7.50016 9.25833C7.3585 9.25833 7.21683 9.23335 7.0835 9.17501C6.70016 9.00835 6.4585 8.63333 6.4585 8.225V1.66667C6.4585 1.32501 6.74183 1.04167 7.0835 1.04167H12.9168C13.2585 1.04167 13.5418 1.32501 13.5418 1.66667V8.21666C13.5418 8.63333 13.3002 9.00834 12.9168 9.16667C12.5418 9.33334 12.1002 9.25835 11.7919 8.97502L10.0002 7.33333L8.20848 8.98336C8.00848 9.1667 7.7585 9.25833 7.50016 9.25833ZM10.0002 6.00836C10.2502 6.00836 10.5085 6.09999 10.7085 6.28332L12.2918 7.74165V2.29167H7.7085V7.74165L9.29185 6.28332C9.49185 6.09999 9.75016 6.00836 10.0002 6.00836Z" fill="#93959E"/>
<path d="M14.5832 12.2917H11.0415C10.6998 12.2917 10.4165 12.0083 10.4165 11.6667C10.4165 11.325 10.6998 11.0417 11.0415 11.0417H14.5832C14.9248 11.0417 15.2082 11.325 15.2082 11.6667C15.2082 12.0083 14.9248 12.2917 14.5832 12.2917Z" fill="#93959E"/>
<path d="M14.5833 15.625H7.5C7.15833 15.625 6.875 15.3417 6.875 15C6.875 14.6583 7.15833 14.375 7.5 14.375H14.5833C14.925 14.375 15.2083 14.6583 15.2083 15C15.2083 15.3417 14.925 15.625 14.5833 15.625Z" fill="#93959E"/>
</svg>
