<svg width="80" height="80" viewBox="0 0 80 80" fill="none" xmlns="http://www.w3.org/2000/svg">
<g clip-path="url(#clip0_1725_12680)">
<path d="M45.833 37.7832V36.1165C45.833 35.6499 45.4663 35.2832 44.9997 35.2832H36.6663C36.1997 35.2832 35.833 35.6499 35.833 36.1165V37.7832C35.833 38.2165 36.1663 38.5499 36.583 38.5999V58.6332C36.1663 58.6832 35.833 59.0165 35.833 59.4499V61.1165C35.833 61.5832 36.1997 61.9499 36.6663 61.9499H44.9997C45.4663 61.9499 45.833 61.5832 45.833 61.1165V59.4499C45.833 59.0165 45.4997 58.6832 45.083 58.6332V38.5999C45.4997 38.5499 45.833 38.2165 45.833 37.7832Z"/>
<path d="M68.3332 66.1165H13.3332C12.4165 66.1165 11.6665 66.8665 11.6665 67.7832V72.7832C11.6665 73.2498 12.0332 73.6165 12.4998 73.6165H69.1665C69.6332 73.6165 69.9998 73.2498 69.9998 72.7832V67.7832C69.9998 66.8665 69.2498 66.1165 68.3332 66.1165ZM19.1665 59.4498V61.1165C19.1665 61.5832 19.5332 61.9498 19.9998 61.9498H28.3332C28.7998 61.9498 29.1665 61.5832 29.1665 61.1165V59.4498C29.1665 58.9832 28.7998 58.6165 28.3332 58.6165V38.6165C28.7998 38.6165 29.1665 38.2498 29.1665 37.7832V36.1165C29.1665 35.6498 28.7998 35.2832 28.3332 35.2832H19.9998C19.5332 35.2832 19.1665 35.6498 19.1665 36.1165V37.7832C19.1665 38.2498 19.5332 38.6165 19.9998 38.6165V58.6165C19.5332 58.6165 19.1665 58.9832 19.1665 59.4498ZM69.1665 23.9665L41.6665 8.2665C41.1498 7.9665 40.5332 7.9665 40.0165 8.2665L12.4998 23.9832C11.9832 24.2832 11.6665 24.8332 11.6665 25.4332V30.2998C11.6665 30.7665 12.0332 31.1332 12.4998 31.1332H69.1665C69.6332 31.1332 69.9998 30.7665 69.9998 30.2998V25.4332C69.9998 24.8332 69.6832 24.2832 69.1665 23.9832V23.9665ZM40.8332 26.5332C38.1832 26.5332 36.0332 24.3832 36.0332 21.7498C36.0332 19.1165 38.1832 16.9665 40.8332 16.9665C43.4832 16.9665 45.6332 19.1165 45.6332 21.7498C45.6332 24.3832 43.4832 26.5332 40.8332 26.5332ZM52.4998 59.4498V61.1165C52.4998 61.5832 52.8665 61.9498 53.3332 61.9498H61.6665C62.1332 61.9498 62.4998 61.5832 62.4998 61.1165V59.4498C62.4998 58.9832 62.1332 58.6165 61.6665 58.6165V38.6165C62.1332 38.6165 62.4998 38.2498 62.4998 37.7832V36.1165C62.4998 35.6498 62.1332 35.2832 61.6665 35.2832H53.3332C52.8665 35.2832 52.4998 35.6498 52.4998 36.1165V37.7832C52.4998 38.1832 52.7832 38.4998 53.1665 38.5832V58.6498C52.7998 58.7332 52.4998 59.0498 52.4998 59.4498Z"/>
</g>
<defs>
<clipPath id="clip0_1725_12680">
<rect width="80" height="80" fill="white"/>
</clipPath>
</defs>
</svg>
