<svg width="20" height="20" viewBox="0 0 20 20" fill="none" xmlns="http://www.w3.org/2000/svg">
<path d="M5.83317 1.66666H4.99984C2.49984 1.66666 1.6665 3.15832 1.6665 4.99999V5.83332V17.5C1.6665 18.1917 2.44984 18.5833 2.99984 18.1667L4.42484 17.1C4.75817 16.85 5.22484 16.8833 5.52484 17.1833L6.90817 18.575C7.23317 18.9 7.7665 18.9 8.0915 18.575L9.4915 17.175C9.78317 16.8833 10.2498 16.85 10.5748 17.1L11.9998 18.1667C12.5498 18.575 13.3332 18.1833 13.3332 17.5V3.33332C13.3332 2.41666 14.0832 1.66666 14.9998 1.66666H5.83317ZM9.37484 11.4583H5.62484C5.28317 11.4583 4.99984 11.175 4.99984 10.8333C4.99984 10.4917 5.28317 10.2083 5.62484 10.2083H9.37484C9.7165 10.2083 9.99984 10.4917 9.99984 10.8333C9.99984 11.175 9.7165 11.4583 9.37484 11.4583ZM9.99984 8.12499H4.99984C4.65817 8.12499 4.37484 7.84166 4.37484 7.49999C4.37484 7.15832 4.65817 6.87499 4.99984 6.87499H9.99984C10.3415 6.87499 10.6248 7.15832 10.6248 7.49999C10.6248 7.84166 10.3415 8.12499 9.99984 8.12499Z" fill="#5866BB"/>
<path d="M15.0085 1.66666V2.91666C15.5585 2.91666 16.0835 3.14166 16.4668 3.51666C16.8668 3.92499 17.0835 4.44999 17.0835 4.99999V7.01666C17.0835 7.63332 16.8085 7.91666 16.1835 7.91666H14.5835V3.34166C14.5835 3.10832 14.7752 2.91666 15.0085 2.91666V1.66666ZM15.0085 1.66666C14.0835 1.66666 13.3335 2.41666 13.3335 3.34166V9.16666H16.1835C17.5002 9.16666 18.3335 8.33332 18.3335 7.01666V4.99999C18.3335 4.08332 17.9585 3.24999 17.3585 2.64166C16.7502 2.04166 15.9252 1.67499 15.0085 1.66666C15.0085 1.66666 15.0168 1.66666 15.0085 1.66666Z" fill="#5866BB"/>
</svg>
